<mxfile host="app.diagrams.net" modified="2024-01-15T20:13:16.451Z" agent="Mozilla/5.0 (Windows NT 10.0; Win64; x64) AppleWebKit/537.36 (KHTML, like Gecko) Chrome/120.0.0.0 Safari/537.36" etag="qYzPp8IvdPh4BkpE90SN" version="22.1.15" type="github">
  <diagram id="C5RBs43oDa-KdzZeNtuy" name="Page-1">
    <mxGraphModel dx="1153" dy="860" grid="1" gridSize="10" guides="1" tooltips="1" connect="1" arrows="1" fold="1" page="1" pageScale="1" pageWidth="827" pageHeight="1169" math="0" shadow="0">
      <root>
        <mxCell id="WIyWlLk6GJQsqaUBKTNV-0" />
        <mxCell id="WIyWlLk6GJQsqaUBKTNV-1" parent="WIyWlLk6GJQsqaUBKTNV-0" />
        <mxCell id="WIyWlLk6GJQsqaUBKTNV-2" value="" style="rounded=0;html=1;jettySize=auto;orthogonalLoop=1;fontSize=11;endArrow=block;endFill=0;endSize=8;strokeWidth=1;shadow=0;labelBackgroundColor=none;edgeStyle=orthogonalEdgeStyle;" parent="WIyWlLk6GJQsqaUBKTNV-1" edge="1">
          <mxGeometry relative="1" as="geometry">
            <mxPoint x="224.66" y="119.99999999999989" as="sourcePoint" />
            <mxPoint x="224.66" y="169.9999999999999" as="targetPoint" />
          </mxGeometry>
        </mxCell>
        <mxCell id="V8QeuojSEptCCsuqhcsX-1" value="start" style="ellipse;whiteSpace=wrap;html=1;" vertex="1" parent="WIyWlLk6GJQsqaUBKTNV-1">
          <mxGeometry x="165" y="40" width="120" height="80" as="geometry" />
        </mxCell>
        <mxCell id="V8QeuojSEptCCsuqhcsX-11" value="" style="edgeStyle=orthogonalEdgeStyle;rounded=0;orthogonalLoop=1;jettySize=auto;html=1;endArrow=block;endFill=0;endSize=8;" edge="1" parent="WIyWlLk6GJQsqaUBKTNV-1" source="V8QeuojSEptCCsuqhcsX-2" target="V8QeuojSEptCCsuqhcsX-3">
          <mxGeometry relative="1" as="geometry" />
        </mxCell>
        <mxCell id="V8QeuojSEptCCsuqhcsX-2" value="Input search Query&amp;nbsp;" style="shape=parallelogram;perimeter=parallelogramPerimeter;whiteSpace=wrap;html=1;fixedSize=1;" vertex="1" parent="WIyWlLk6GJQsqaUBKTNV-1">
          <mxGeometry x="130" y="170" width="190" height="70" as="geometry" />
        </mxCell>
        <mxCell id="V8QeuojSEptCCsuqhcsX-14" style="edgeStyle=orthogonalEdgeStyle;rounded=0;orthogonalLoop=1;jettySize=auto;html=1;exitX=0;exitY=0.5;exitDx=0;exitDy=0;endArrow=block;endFill=0;" edge="1" parent="WIyWlLk6GJQsqaUBKTNV-1" source="V8QeuojSEptCCsuqhcsX-3" target="V8QeuojSEptCCsuqhcsX-15">
          <mxGeometry relative="1" as="geometry">
            <mxPoint x="120" y="330.0689655172414" as="targetPoint" />
          </mxGeometry>
        </mxCell>
        <mxCell id="V8QeuojSEptCCsuqhcsX-24" style="edgeStyle=orthogonalEdgeStyle;rounded=0;orthogonalLoop=1;jettySize=auto;html=1;exitX=0.5;exitY=1;exitDx=0;exitDy=0;entryX=0.5;entryY=0;entryDx=0;entryDy=0;" edge="1" parent="WIyWlLk6GJQsqaUBKTNV-1" source="V8QeuojSEptCCsuqhcsX-3" target="V8QeuojSEptCCsuqhcsX-21">
          <mxGeometry relative="1" as="geometry" />
        </mxCell>
        <mxCell id="V8QeuojSEptCCsuqhcsX-25" style="edgeStyle=orthogonalEdgeStyle;rounded=0;orthogonalLoop=1;jettySize=auto;html=1;exitX=0.5;exitY=1;exitDx=0;exitDy=0;entryX=0.5;entryY=0;entryDx=0;entryDy=0;" edge="1" parent="WIyWlLk6GJQsqaUBKTNV-1" source="V8QeuojSEptCCsuqhcsX-3" target="V8QeuojSEptCCsuqhcsX-19">
          <mxGeometry relative="1" as="geometry" />
        </mxCell>
        <mxCell id="V8QeuojSEptCCsuqhcsX-26" style="edgeStyle=orthogonalEdgeStyle;rounded=0;orthogonalLoop=1;jettySize=auto;html=1;exitX=0.5;exitY=1;exitDx=0;exitDy=0;entryX=0.5;entryY=0;entryDx=0;entryDy=0;" edge="1" parent="WIyWlLk6GJQsqaUBKTNV-1" source="V8QeuojSEptCCsuqhcsX-3" target="V8QeuojSEptCCsuqhcsX-20">
          <mxGeometry relative="1" as="geometry" />
        </mxCell>
        <mxCell id="V8QeuojSEptCCsuqhcsX-3" value="Iterate over recipes" style="rounded=0;whiteSpace=wrap;html=1;" vertex="1" parent="WIyWlLk6GJQsqaUBKTNV-1">
          <mxGeometry x="165" y="300" width="120" height="60" as="geometry" />
        </mxCell>
        <mxCell id="V8QeuojSEptCCsuqhcsX-33" style="edgeStyle=orthogonalEdgeStyle;rounded=0;orthogonalLoop=1;jettySize=auto;html=1;exitX=0.5;exitY=1;exitDx=0;exitDy=0;entryX=0;entryY=0.5;entryDx=0;entryDy=0;" edge="1" parent="WIyWlLk6GJQsqaUBKTNV-1" source="V8QeuojSEptCCsuqhcsX-15" target="V8QeuojSEptCCsuqhcsX-31">
          <mxGeometry relative="1" as="geometry">
            <mxPoint x="40" y="740" as="targetPoint" />
          </mxGeometry>
        </mxCell>
        <mxCell id="V8QeuojSEptCCsuqhcsX-15" value="No match found" style="rhombus;whiteSpace=wrap;html=1;" vertex="1" parent="WIyWlLk6GJQsqaUBKTNV-1">
          <mxGeometry y="289.9989655172414" width="80" height="80" as="geometry" />
        </mxCell>
        <mxCell id="V8QeuojSEptCCsuqhcsX-28" style="edgeStyle=orthogonalEdgeStyle;rounded=0;orthogonalLoop=1;jettySize=auto;html=1;exitX=0.5;exitY=1;exitDx=0;exitDy=0;entryX=0.5;entryY=0;entryDx=0;entryDy=0;" edge="1" parent="WIyWlLk6GJQsqaUBKTNV-1" source="V8QeuojSEptCCsuqhcsX-19" target="V8QeuojSEptCCsuqhcsX-27">
          <mxGeometry relative="1" as="geometry" />
        </mxCell>
        <mxCell id="V8QeuojSEptCCsuqhcsX-19" value="Check recipe&lt;br&gt;&amp;nbsp;title" style="rhombus;whiteSpace=wrap;html=1;aspect=fixed;" vertex="1" parent="WIyWlLk6GJQsqaUBKTNV-1">
          <mxGeometry x="70" y="420" width="100" height="100" as="geometry" />
        </mxCell>
        <mxCell id="V8QeuojSEptCCsuqhcsX-29" style="edgeStyle=orthogonalEdgeStyle;rounded=0;orthogonalLoop=1;jettySize=auto;html=1;exitX=0.5;exitY=1;exitDx=0;exitDy=0;" edge="1" parent="WIyWlLk6GJQsqaUBKTNV-1" source="V8QeuojSEptCCsuqhcsX-20">
          <mxGeometry relative="1" as="geometry">
            <mxPoint x="224.9655172413793" y="580" as="targetPoint" />
          </mxGeometry>
        </mxCell>
        <mxCell id="V8QeuojSEptCCsuqhcsX-20" value="check recipe description" style="rhombus;whiteSpace=wrap;html=1;aspect=fixed;" vertex="1" parent="WIyWlLk6GJQsqaUBKTNV-1">
          <mxGeometry x="175" y="420" width="100" height="100" as="geometry" />
        </mxCell>
        <mxCell id="V8QeuojSEptCCsuqhcsX-30" style="edgeStyle=orthogonalEdgeStyle;rounded=0;orthogonalLoop=1;jettySize=auto;html=1;exitX=0.5;exitY=1;exitDx=0;exitDy=0;entryX=0.5;entryY=0;entryDx=0;entryDy=0;" edge="1" parent="WIyWlLk6GJQsqaUBKTNV-1" source="V8QeuojSEptCCsuqhcsX-21" target="V8QeuojSEptCCsuqhcsX-27">
          <mxGeometry relative="1" as="geometry" />
        </mxCell>
        <mxCell id="V8QeuojSEptCCsuqhcsX-21" value="check recipe iingredients" style="rhombus;whiteSpace=wrap;html=1;aspect=fixed;" vertex="1" parent="WIyWlLk6GJQsqaUBKTNV-1">
          <mxGeometry x="280" y="420" width="100" height="100" as="geometry" />
        </mxCell>
        <mxCell id="V8QeuojSEptCCsuqhcsX-32" style="edgeStyle=orthogonalEdgeStyle;rounded=0;orthogonalLoop=1;jettySize=auto;html=1;exitX=0.5;exitY=1;exitDx=0;exitDy=0;entryX=0.5;entryY=0;entryDx=0;entryDy=0;" edge="1" parent="WIyWlLk6GJQsqaUBKTNV-1" source="V8QeuojSEptCCsuqhcsX-27" target="V8QeuojSEptCCsuqhcsX-31">
          <mxGeometry relative="1" as="geometry" />
        </mxCell>
        <mxCell id="V8QeuojSEptCCsuqhcsX-27" value="Show matching recipes" style="shape=parallelogram;perimeter=parallelogramPerimeter;whiteSpace=wrap;html=1;fixedSize=1;" vertex="1" parent="WIyWlLk6GJQsqaUBKTNV-1">
          <mxGeometry x="165" y="570" width="120" height="60" as="geometry" />
        </mxCell>
        <mxCell id="V8QeuojSEptCCsuqhcsX-31" value="end" style="ellipse;whiteSpace=wrap;html=1;" vertex="1" parent="WIyWlLk6GJQsqaUBKTNV-1">
          <mxGeometry x="165" y="690" width="120" height="80" as="geometry" />
        </mxCell>
      </root>
    </mxGraphModel>
  </diagram>
</mxfile>
